HIERARCHY
ROOT Hips
{
  OFFSET 0.000000 95.000000 0.000000
  CHANNELS 6 Xposition Yposition Zposition Zrotation Xrotation Yrotation
  JOINT Spine
  {
    OFFSET 0.000000 10.000000 0.000000
    CHANNELS 3 Zrotation Xrotation Yrotation
    JOINT Spine1
    {
      OFFSET 0.000000 12.000000 0.000000
      CHANNELS 3 Zrotation Xrotation Yrotation
      JOINT Spine2
      {
        OFFSET 0.000000 12.000000 0.000000
        CHANNELS 3 Zrotation Xrotation Yrotation
        JOINT Neck
        {
          OFFSET 0.000000 10.000000 0.000000
          CHANNELS 3 Zrotation Xrotation Yrotation
          JOINT Head
          {
            OFFSET 0.000000 8.000000 0.000000
            CHANNELS 3 Zrotation Xrotation Yrotation
            End Site
            {
              OFFSET 0.000000 10.000000 0.000000
            }
          }
        }
        JOINT LeftShoulder
        {
          OFFSET 6.000000 8.000000 0.000000
          CHANNELS 3 Zrotation Xrotation Yrotation
          JOINT LeftArm
          {
            OFFSET 12.000000 0.000000 0.000000
            CHANNELS 3 Zrotation Xrotation Yrotation
            JOINT LeftForeArm
            {
              OFFSET 24.000000 0.000000 0.000000
              CHANNELS 3 Zrotation Xrotation Yrotation
              JOINT LeftHand
              {
                OFFSET 22.000000 0.000000 0.000000
                CHANNELS 3 Zrotation Xrotation Yrotation
                JOINT LeftHandThumb1
                {
                  OFFSET 1.800000 -1.400000 0.500000
                  CHANNELS 3 Zrotation Xrotation Yrotation
                  JOINT LeftHandThumb2
                  {
                    OFFSET 2.400000 0.000000 0.000000
                    CHANNELS 3 Zrotation Xrotation Yrotation
                    JOINT LeftHandThumb3
                    {
                      OFFSET 1.900000 0.000000 0.000000
                      CHANNELS 3 Zrotation Xrotation Yrotation
                      End Site
                      {
                        OFFSET 1.600000 0.000000 0.000000
                      }
                    }
                  }
                }
                JOINT LeftHandIndex1
                {
                  OFFSET 6.600000 1.200000 0.300000
                  CHANNELS 3 Zrotation Xrotation Yrotation
                  JOINT LeftHandIndex2
                  {
                    OFFSET 2.000000 0.000000 0.000000
                    CHANNELS 3 Zrotation Xrotation Yrotation
                    JOINT LeftHandIndex3
                    {
                      OFFSET 1.200000 0.000000 0.000000
                      CHANNELS 3 Zrotation Xrotation Yrotation
                      End Site
                      {
                        OFFSET 1.000000 0.000000 0.000000
                      }
                    }
                  }
                }
                JOINT LeftHandMiddle1
                {
                  OFFSET 7.200000 0.000000 0.300000
                  CHANNELS 3 Zrotation Xrotation Yrotation
                  JOINT LeftHandMiddle2
                  {
                    OFFSET 3.000000 0.000000 0.000000
                    CHANNELS 3 Zrotation Xrotation Yrotation
                    JOINT LeftHandMiddle3
                    {
                      OFFSET 2.000000 0.000000 0.000000
                      CHANNELS 3 Zrotation Xrotation Yrotation
                      End Site
                      {
                        OFFSET 1.600000 0.000000 0.000000
                      }
                    }
                  }
                }
                JOINT LeftHandRing1
                {
                  OFFSET 7.100000 -1.000000 0.400000
                  CHANNELS 3 Zrotation Xrotation Yrotation
                  JOINT LeftHandRing2
                  {
                    OFFSET 2.600000 0.000000 0.000000
                    CHANNELS 3 Zrotation Xrotation Yrotation
                    JOINT LeftHandRing3
                    {
                      OFFSET 1.600000 0.000000 0.000000
                      CHANNELS 3 Zrotation Xrotation Yrotation
                      End Site
                      {
                        OFFSET 1.300000 0.000000 0.000000
                      }
                    }
                  }
                }
                JOINT LeftHandPinky1
                {
                  OFFSET 6.500000 -2.000000 0.500000
                  CHANNELS 3 Zrotation Xrotation Yrotation
                  JOINT LeftHandPinky2
                  {
                    OFFSET 1.900000 0.000000 0.000000
                    CHANNELS 3 Zrotation Xrotation Yrotation
                    JOINT LeftHandPinky3
                    {
                      OFFSET 1.400000 0.000000 0.000000
                      CHANNELS 3 Zrotation Xrotation Yrotation
                      End Site
                      {
                        OFFSET 1.300000 0.000000 0.000000
                      }
                    }
                  }
                }
              }
            }
          }
        }
        JOINT RightShoulder
        {
          OFFSET -6.000000 8.000000 0.000000
          CHANNELS 3 Zrotation Xrotation Yrotation
          JOINT RightArm
          {
            OFFSET -12.000000 0.000000 0.000000
            CHANNELS 3 Zrotation Xrotation Yrotation
            JOINT RightForeArm
            {
              OFFSET -24.000000 0.000000 0.000000
              CHANNELS 3 Zrotation Xrotation Yrotation
              JOINT RightHand
              {
                OFFSET -22.000000 0.000000 0.000000
                CHANNELS 3 Zrotation Xrotation Yrotation
                JOINT RightHandThumb1
                {
                  OFFSET -1.800000 -1.400000 0.500000
                  CHANNELS 3 Zrotation Xrotation Yrotation
                  JOINT RightHandThumb2
                  {
                    OFFSET -2.400000 0.000000 0.000000
                    CHANNELS 3 Zrotation Xrotation Yrotation
                    JOINT RightHandThumb3
                    {
                      OFFSET -1.900000 0.000000 0.000000
                      CHANNELS 3 Zrotation Xrotation Yrotation
                      End Site
                      {
                        OFFSET -1.600000 0.000000 0.000000
                      }
                    }
                  }
                }
                JOINT RightHandIndex1
                {
                  OFFSET -6.600000 1.200000 0.300000
                  CHANNELS 3 Zrotation Xrotation Yrotation
                  JOINT RightHandIndex2
                  {
                    OFFSET -2.000000 0.000000 0.000000
                    CHANNELS 3 Zrotation Xrotation Yrotation
                    JOINT RightHandIndex3
                    {
                      OFFSET -1.200000 0.000000 0.000000
                      CHANNELS 3 Zrotation Xrotation Yrotation
                      End Site
                      {
                        OFFSET -1.000000 0.000000 0.000000
                      }
                    }
                  }
                }
                JOINT RightHandMiddle1
                {
                  OFFSET -7.200000 0.000000 0.300000
                  CHANNELS 3 Zrotation Xrotation Yrotation
                  JOINT RightHandMiddle2
                  {
                    OFFSET -3.000000 0.000000 0.000000
                    CHANNELS 3 Zrotation Xrotation Yrotation
                    JOINT RightHandMiddle3
                    {
                      OFFSET -2.000000 0.000000 0.000000
                      CHANNELS 3 Zrotation Xrotation Yrotation
                      End Site
                      {
                        OFFSET -1.600000 0.000000 0.000000
                      }
                    }
                  }
                }
                JOINT RightHandRing1
                {
                  OFFSET -7.100000 -1.000000 0.400000
                  CHANNELS 3 Zrotation Xrotation Yrotation
                  JOINT RightHandRing2
                  {
                    OFFSET -2.600000 0.000000 0.000000
                    CHANNELS 3 Zrotation Xrotation Yrotation
                    JOINT RightHandRing3
                    {
                      OFFSET -1.600000 0.000000 0.000000
                      CHANNELS 3 Zrotation Xrotation Yrotation
                      End Site
                      {
                        OFFSET -1.300000 0.000000 0.000000
                      }
                    }
                  }
                }
                JOINT RightHandPinky1
                {
                  OFFSET -6.500000 -2.000000 0.500000
                  CHANNELS 3 Zrotation Xrotation Yrotation
                  JOINT RightHandPinky2
                  {
                    OFFSET -1.900000 0.000000 0.000000
                    CHANNELS 3 Zrotation Xrotation Yrotation
                    JOINT RightHandPinky3
                    {
                      OFFSET -1.400000 0.000000 0.000000
                      CHANNELS 3 Zrotation Xrotation Yrotation
                      End Site
                      {
                        OFFSET -1.300000 0.000000 0.000000
                      }
                    }
                  }
                }
              }
            }
          }
        }
      }
    }
  }
  JOINT LeftUpLeg
  {
    OFFSET 10.000000 -5.000000 0.000000
    CHANNELS 3 Zrotation Xrotation Yrotation
    JOINT LeftLeg
    {
      OFFSET 0.000000 -42.000000 0.000000
      CHANNELS 3 Zrotation Xrotation Yrotation
      JOINT LeftFoot
      {
        OFFSET 0.000000 -42.000000 4.000000
        CHANNELS 3 Zrotation Xrotation Yrotation
        End Site
        {
          OFFSET 0.000000 0.000000 12.000000
        }
      }
    }
  }
  JOINT RightUpLeg
  {
    OFFSET -10.000000 -5.000000 0.000000
    CHANNELS 3 Zrotation Xrotation Yrotation
    JOINT RightLeg
    {
      OFFSET 0.000000 -42.000000 0.000000
      CHANNELS 3 Zrotation Xrotation Yrotation
      JOINT RightFoot
      {
        OFFSET 0.000000 -42.000000 4.000000
        CHANNELS 3 Zrotation Xrotation Yrotation
        End Site
        {
          OFFSET 0.000000 0.000000 12.000000
        }
      }
    }
  }
}
MOTION
Frames: 9
Frame Time: 0.033333
0.0000 95.0000 0.0000 0.0000 0.0000 0.0000 0.0000 0.0000 0.0000 0.0000 0.0000 0.0000 0.0000 0.0000 0.0000 0.0000 0.0000 0.0000 0.0000 0.0000 0.0000 0.0000 0.0000 0.0000 -82.5584 8.5753 9.7628 -2.1382 5.4971 -6.0956 -169.6613 4.3424 177.0466 48.7589 -8.8255 8.1192 12.1918 0.0000 0.0000 1.9563 0.0000 0.0000 -5.9368 0.0785 1.4691 11.6019 0.0000 0.0000 1.4545 0.0000 0.0000 7.9916 -0.3552 0.3104 29.5798 0.0000 0.0000 19.0662 0.0000 0.0000 14.7682 -0.8292 -0.7058 33.1611 0.0000 0.0000 27.9056 0.0000 0.0000 20.7318 -1.7140 -1.6037 29.2904 0.0000 0.0000 37.7136 0.0000 0.0000 0.0000 0.0000 0.0000 67.1396 -27.1137 39.9365 210.2952 37.7122 -60.2674 -32.7514 33.0941 307.1459 -60.7984 -12.3047 -4.2547 2.3522 0.0000 0.0000 5.3496 0.0000 0.0000 -16.3275 3.6918 13.3545 54.6685 0.0000 0.0000 17.7477 0.0000 0.0000 0.9026 0.0231 1.8440 10.6168 0.0000 0.0000 0.3674 0.0000 0.0000 2.9577 0.1599 0.0439 9.7198 0.0000 0.0000 0.4261 0.0000 0.0000 6.2257 0.8383 -0.9511 5.6112 0.0000 0.0000 3.4687 0.0000 0.0000 0.0000 0.0000 0.0000 0.0000 0.0000 0.0000 0.0000 0.0000 0.0000 0.0000 0.0000 0.0000 0.0000 0.0000 0.0000 0.0000 0.0000 0.0000
0.0000 95.0000 0.0000 0.0000 0.0000 0.0000 0.0000 0.0000 0.0000 0.0000 0.0000 0.0000 0.0000 0.0000 0.0000 0.0000 0.0000 0.0000 0.0000 0.0000 0.0000 0.0000 0.0000 0.0000 -83.1331 8.4470 9.5206 -1.4923 5.5437 -6.1357 -168.6223 4.4688 177.3763 48.6601 -8.6629 8.7180 13.3923 0.0000 0.0000 2.2268 0.0000 0.0000 -7.0540 0.1043 1.7945 9.9361 0.0000 0.0000 2.9625 0.0000 0.0000 6.3308 -0.2778 0.2487 28.0266 0.0000 0.0000 20.4317 0.0000 0.0000 13.6004 -0.7610 -0.1856 37.0937 0.0000 0.0000 33.5632 0.0000 0.0000 20.2018 -1.5859 -0.7990 34.2566 0.0000 0.0000 47.9223 0.0000 0.0000 0.0000 0.0000 0.0000 68.8662 -27.2645 38.9630 208.6301 35.3803 -60.5788 -30.2832 33.2639 310.4670 -61.4772 -12.4729 -4.0215 3.0353 0.0000 0.0000 3.0601 0.0000 0.0000 -15.5745 3.6769 13.4939 57.8021 0.0000 0.0000 24.4065 0.0000 0.0000 -0.4964 -0.0165 0.9621 9.2585 0.0000 0.0000 0.5438 0.0000 0.0000 1.2405 0.1389 -0.4537 7.7985 0.0000 0.0000 0.5178 0.0000 0.0000 4.5685 0.7639 -1.1575 5.4898 0.0000 0.0000 3.2738 0.0000 0.0000 0.0000 0.0000 0.0000 0.0000 0.0000 0.0000 0.0000 0.0000 0.0000 0.0000 0.0000 0.0000 0.0000 0.0000 0.0000 0.0000 0.0000 0.0000
0.0000 95.0000 0.0000 0.0000 0.0000 0.0000 0.0000 0.0000 0.0000 0.0000 0.0000 0.0000 0.0000 0.0000 0.0000 0.0000 0.0000 0.0000 0.0000 0.0000 0.0000 0.0000 0.0000 0.0000 -83.3676 8.7309 9.7999 -1.1672 5.6451 -6.2362 -168.1280 2.0198 175.6937 48.9849 -8.8798 8.1384 13.9645 0.0000 0.0000 2.6951 0.0000 0.0000 -8.6570 0.2408 1.4157 10.7948 0.0000 0.0000 3.3252 0.0000 0.0000 5.0701 -0.2055 -0.1339 35.1980 0.0000 0.0000 25.1688 0.0000 0.0000 11.7303 -0.7094 -1.4957 42.5943 0.0000 0.0000 37.8722 0.0000 0.0000 18.6558 -1.7481 -2.7320 38.5413 0.0000 0.0000 49.1403 0.0000 0.0000 0.0000 0.0000 0.0000 69.9451 -26.8695 37.7096 207.4486 35.5919 -60.5713 -28.8166 27.1941 312.5473 -60.1186 -12.5363 -1.0061 0.5335 0.0000 0.0000 2.5887 0.0000 0.0000 -21.0431 6.3032 19.1700 55.1154 0.0000 0.0000 22.6897 0.0000 0.0000 -1.6534 -0.0563 0.8741 9.5442 0.0000 0.0000 1.4825 0.0000 0.0000 0.4663 0.3393 -2.1560 8.1102 0.0000 0.0000 0.9783 0.0000 0.0000 3.6222 1.7828 -4.3644 6.0824 0.0000 0.0000 2.9662 0.0000 0.0000 0.0000 0.0000 0.0000 0.0000 0.0000 0.0000 0.0000 0.0000 0.0000 0.0000 0.0000 0.0000 0.0000 0.0000 0.0000 0.0000 0.0000 0.0000
0.0000 95.0000 0.0000 0.0000 0.0000 0.0000 0.0000 0.0000 0.0000 0.0000 0.0000 0.0000 0.0000 0.0000 0.0000 0.0000 0.0000 0.0000 0.0000 0.0000 0.0000 0.0000 0.0000 0.0000 -82.7964 9.6701 10.9618 -1.6921 6.0882 -6.7384 -168.3565 1.9787 175.0307 49.2029 -8.9620 8.0233 14.5055 0.0000 0.0000 3.6807 0.0000 0.0000 -7.7398 0.1799 1.4922 10.7090 0.0000 0.0000 2.3785 0.0000 0.0000 6.2160 -0.2555 -0.0694 33.3003 0.0000 0.0000 23.5009 0.0000 0.0000 13.3615 -0.7669 -0.9998 38.4864 0.0000 0.0000 36.8803 0.0000 0.0000 19.5411 -1.6568 -1.6881 33.5501 0.0000 0.0000 45.1196 0.0000 0.0000 0.0000 0.0000 0.0000 71.1247 -26.7206 36.7529 206.2866 35.7004 -60.9593 -26.9953 19.4118 316.4030 -59.2367 -12.7758 2.2764 2.5236 0.0000 0.0000 11.0221 0.0000 0.0000 -17.3147 7.9640 25.4100 53.9264 0.0000 0.0000 26.8415 0.0000 0.0000 -1.2172 -0.0406 0.9532 9.9554 0.0000 0.0000 0.3865 0.0000 0.0000 1.1588 0.5686 -3.3219 8.7377 0.0000 0.0000 2.0058 0.0000 0.0000 3.6712 2.2329 -5.6472 6.7281 0.0000 0.0000 3.9914 0.0000 0.0000 0.0000 0.0000 0.0000 0.0000 0.0000 0.0000 0.0000 0.0000 0.0000 0.0000 0.0000 0.0000 0.0000 0.0000 0.0000 0.0000 0.0000 0.0000
0.0000 95.0000 0.0000 0.0000 0.0000 0.0000 0.0000 0.0000 0.0000 0.0000 0.0000 0.0000 0.0000 0.0000 0.0000 0.0000 0.0000 0.0000 0.0000 0.0000 0.0000 0.0000 0.0000 0.0000 -82.2071 10.3744 11.8808 -2.9204 6.4939 -7.1497 -169.5426 2.2497 174.5513 49.0789 -9.0270 7.5894 12.6341 0.0000 0.0000 1.0020 0.0000 0.0000 -6.8148 0.1703 1.1289 10.5734 0.0000 0.0000 1.5442 0.0000 0.0000 6.9477 -0.2704 -0.3205 41.8794 0.0000 0.0000 34.2000 0.0000 0.0000 13.5597 -0.7773 -1.0559 45.4729 0.0000 0.0000 46.1737 0.0000 0.0000 19.8492 -1.6465 -1.4658 35.9256 0.0000 0.0000 48.8679 0.0000 0.0000 0.0000 0.0000 0.0000 72.6405 -25.2967 33.9522 204.2600 41.7949 -62.1144 -33.0834 10.3230 312.1483 -51.1334 -10.3365 -3.6702 5.6991 0.0000 0.0000 10.4375 0.0000 0.0000 21.2606 0.9615 -2.6721 125.0680 0.0000 0.0000 15.7990 0.0000 0.0000 28.9254 5.0611 -14.6748 79.9254 0.0000 0.0000 18.7911 0.0000 0.0000 20.9174 3.9095 -7.9832 58.6083 0.0000 0.0000 31.2495 0.0000 0.0000 0.7022 0.9957 -2.9876 24.1728 0.0000 0.0000 17.6155 0.0000 0.0000 0.0000 0.0000 0.0000 0.0000 0.0000 0.0000 0.0000 0.0000 0.0000 0.0000 0.0000 0.0000 0.0000 0.0000 0.0000 0.0000 0.0000 0.0000
0.0000 95.0000 0.0000 0.0000 0.0000 0.0000 0.0000 0.0000 0.0000 0.0000 0.0000 0.0000 0.0000 0.0000 0.0000 0.0000 0.0000 0.0000 0.0000 0.0000 0.0000 0.0000 0.0000 0.0000 -81.3194 11.4861 13.3570 -4.2516 7.4116 -8.1751 -168.8955 3.1286 174.5076 48.3548 -8.8017 7.7673 12.7751 0.0000 0.0000 3.9747 0.0000 0.0000 -7.8669 0.1903 1.4642 9.3026 0.0000 0.0000 2.1987 0.0000 0.0000 5.3599 -0.2233 -0.0034 36.7094 0.0000 0.0000 27.4133 0.0000 0.0000 12.0377 -0.6915 -0.6005 43.7069 0.0000 0.0000 37.9420 0.0000 0.0000 18.6582 -1.4854 -0.7897 33.7950 0.0000 0.0000 46.5860 0.0000 0.0000 0.0000 0.0000 0.0000 73.4050 -24.0057 31.8374 203.5704 52.1431 -64.7454 -37.1813 -48.7686 412.4930 -60.6747 -12.7431 -0.0497 36.8508 0.0000 0.0000 17.3869 0.0000 0.0000 32.4712 0.1453 12.4130 18.7924 0.0000 0.0000 10.4673 0.0000 0.0000 28.7286 -2.7270 15.3917 15.0587 0.0000 0.0000 5.0091 0.0000 0.0000 36.7255 -5.3898 15.4014 12.2242 0.0000 0.0000 8.9321 0.0000 0.0000 27.1629 -7.6413 16.8103 11.2978 0.0000 0.0000 3.8223 0.0000 0.0000 0.0000 0.0000 0.0000 0.0000 0.0000 0.0000 0.0000 0.0000 0.0000 0.0000 0.0000 0.0000 0.0000 0.0000 0.0000 0.0000 0.0000 0.0000
0.0000 95.0000 0.0000 0.0000 0.0000 0.0000 0.0000 0.0000 0.0000 0.0000 0.0000 0.0000 0.0000 0.0000 0.0000 0.0000 0.0000 0.0000 0.0000 0.0000 0.0000 0.0000 0.0000 0.0000 -80.6380 12.2588 14.4241 -5.5238 7.7494 -8.4757 -170.8747 12.4570 175.2674 48.8421 -9.4751 5.3258 10.6905 0.0000 0.0000 1.8920 0.0000 0.0000 -5.2231 0.1528 0.6136 10.7647 0.0000 0.0000 2.1245 0.0000 0.0000 9.0803 -0.1893 -2.3883 34.7648 0.0000 0.0000 27.1905 0.0000 0.0000 15.2912 -0.8722 -3.5686 41.1254 0.0000 0.0000 41.9408 0.0000 0.0000 20.9972 -2.0091 -4.0501 30.9589 0.0000 0.0000 42.3970 0.0000 0.0000 0.0000 0.0000 0.0000 74.5853 -22.5369 29.3222 210.8728 70.8081 -64.7841 -2.4534 -28.7516 403.5305 -68.7088 -14.3886 6.6983 40.0640 0.0000 0.0000 11.2178 0.0000 0.0000 26.9429 0.6651 9.5244 11.2261 0.0000 0.0000 7.1698 0.0000 0.0000 19.7372 -1.3906 12.7532 11.6748 0.0000 0.0000 3.0761 0.0000 0.0000 23.7840 -2.8499 11.7447 10.7819 0.0000 0.0000 6.2216 0.0000 0.0000 14.1067 -4.6677 12.9802 10.1688 0.0000 0.0000 3.9810 0.0000 0.0000 0.0000 0.0000 0.0000 0.0000 0.0000 0.0000 0.0000 0.0000 0.0000 0.0000 0.0000 0.0000 0.0000 0.0000 0.0000 0.0000 0.0000 0.0000
0.0000 95.0000 0.0000 0.0000 0.0000 0.0000 0.0000 0.0000 0.0000 0.0000 0.0000 0.0000 0.0000 0.0000 0.0000 0.0000 0.0000 0.0000 0.0000 0.0000 0.0000 0.0000 0.0000 0.0000 -80.7460 12.8630 15.1042 -5.9208 7.8486 -8.4497 -183.1337 -26.2152 161.3958 51.7892 -10.5321 3.3841 2.0938 0.0000 0.0000 4.3510 0.0000 0.0000 5.1272 -0.5641 1.4385 1.3347 0.0000 0.0000 1.1481 0.0000 0.0000 8.3178 -0.1973 -2.0588 1.1775 0.0000 0.0000 2.2677 0.0000 0.0000 -1.6696 -0.3371 -2.7721 13.4401 0.0000 0.0000 3.1685 0.0000 0.0000 -39.4075 6.8953 4.4516 16.4111 0.0000 0.0000 4.2614 0.0000 0.0000 0.0000 0.0000 0.0000 76.3641 -19.3955 24.5202 349.4260 79.7416 61.2537 38.6760 3.7520 403.4973 -68.1037 -14.3489 7.3684 27.0208 0.0000 0.0000 3.0713 0.0000 0.0000 13.0335 0.8298 3.7467 3.4918 0.0000 0.0000 5.1598 0.0000 0.0000 2.6572 -0.0603 7.3717 6.9389 0.0000 0.0000 1.8698 0.0000 0.0000 1.3339 -0.8955 6.3678 8.9262 0.0000 0.0000 3.7285 0.0000 0.0000 -8.1446 -2.3002 7.3247 8.4428 0.0000 0.0000 4.0143 0.0000 0.0000 0.0000 0.0000 0.0000 0.0000 0.0000 0.0000 0.0000 0.0000 0.0000 0.0000 0.0000 0.0000 0.0000 0.0000 0.0000 0.0000 0.0000 0.0000
0.0000 95.0000 0.0000 0.0000 0.0000 0.0000 0.0000 0.0000 0.0000 0.0000 0.0000 0.0000 0.0000 0.0000 0.0000 0.0000 0.0000 0.0000 0.0000 0.0000 0.0000 0.0000 0.0000 0.0000 -81.6991 12.2663 14.1676 -6.1160 7.8331 -8.3679 -173.0902 15.8333 176.3472 48.6119 -9.3226 5.7644 10.1308 0.0000 0.0000 2.8617 0.0000 0.0000 -4.1354 0.1284 0.4036 12.0840 0.0000 0.0000 2.2857 0.0000 0.0000 9.7100 -0.1352 -3.1803 30.8060 0.0000 0.0000 21.1334 0.0000 0.0000 15.5725 -0.8814 -4.2407 38.8482 0.0000 0.0000 37.5770 0.0000 0.0000 20.2404 -1.9934 -4.1415 32.4306 0.0000 0.0000 44.4212 0.0000 0.0000 0.0000 0.0000 0.0000 79.7460 -14.5919 17.4278 374.5402 43.8599 59.1169 87.0754 49.5262 431.3738 -59.1463 -12.2712 -1.7049 11.7123 0.0000 0.0000 3.5192 0.0000 0.0000 6.9008 0.1398 -1.4215 5.0772 0.0000 0.0000 5.2073 0.0000 0.0000 -4.6852 -0.1198 1.8438 4.1366 0.0000 0.0000 2.8378 0.0000 0.0000 -9.8445 -0.6052 1.0390 7.0177 0.0000 0.0000 3.6082 0.0000 0.0000 -18.9362 -1.5720 1.3060 6.5974 0.0000 0.0000 3.9029 0.0000 0.0000 0.0000 0.0000 0.0000 0.0000 0.0000 0.0000 0.0000 0.0000 0.0000 0.0000 0.0000 0.0000 0.0000 0.0000 0.0000 0.0000 0.0000 0.0000
